<svg xmlns="http://www.w3.org/2000/svg" viewBox="0 0 459.17 163.49"><defs><style>.cls-1{fill:#8b9d4f;fill-rule:evenodd;}</style></defs><title>Asset 1</title><g id="Layer_2" data-name="Layer 2"><g id="Layer_1-2" data-name="Layer 1"><path class="cls-1" d="M209,107.33c4.31-1.07,5.31,2,3,3.62-44,12.62-78.08,66.59-135.75,40.21-20.77-9.5-40.3-24.48-54-42.8H0c22.27,29.29,58.53,56.43,104.67,55.08,47.75-1.4,73.38-39.84,124.91-39.24,51.54-.6,77.17,37.84,124.92,39.24,46.14,1.35,82.41-25.79,104.67-55.08H437c-13.66,18.32-33.19,33.3-54,42.8C325.38,177.52,291.3,123.67,247.36,111c-2.39-1.58-1.4-4.72,2.93-3.65.86.23,1.71.46,2.57.67,30.23,7.22,60.3-8.29,71.67-39.74-31-13-62.9-1.13-77.94,26.29-.68,1.24-1.3,2.48-1.92,3.75-3.39,6.71-9.25,8.87-15,9-5.79-.16-11.66-2.32-15-9-.42-.88-.84-1.73-1.29-2.59-14.77-28.25-47.14-40.59-78.57-27.45,11.53,31.89,42.28,47.38,72.93,39.43l1.31-.36M229.58,90c-26.51-25-27.09-64.2,0-90C256.68,25.8,256.1,65,229.58,90Z"/></g></g></svg>